<svg xmlns="http://www.w3.org/2000/svg" viewBox="0 0 24 24" width="20" height="20">
  <path fill="#FFFFFF" d="M12 .5C5.65.5.5 5.65.5 12c0 5.1 3.3 9.4 7.8 10.9.6.1.8-.3.8-.6v-2.1c-3.3.7-4-1.6-4-1.6-.6-1.4-1.5-1.7-1.5-1.7-1.3-.9.1-.9.1-.9 1.4.1 2.1 1.4 2.1 1.4 1.2 2.1 3.1 1.5 3.8 1.1.1-.9.5-1.5.8-1.8-2.6-.3-5.4-1.3-5.4-5.7 0-1.3.5-2.3 1.2-3.2-.1-.3-.5-1.5.1-3.1 0 0 1-.3 3.3 1.2a11.3 11.3 0 0 1 6 0c2.2-1.5 3.3-1.2 3.3-1.2.6 1.6.2 2.8.1 3.1.8.9 1.2 2 1.2 3.2 0 4.4-2.8 5.4-5.4 5.7.4.3.8 1 .8 2v3c0 .3.2.7.8.6 4.5-1.5 7.8-5.8 7.8-10.9C23.5 5.65 18.35.5 12 .5z"/>
</svg>