<svg xmlns="http://www.w3.org/2000/svg" width="20" height="20" viewBox="0 0 48 48">
<path fill="#fbc02d" d="M43.6 20.5H42V20H24v8h11.3C33.6 32.4 29.3 35 24 35c-6.1 0-11-4.9-11-11s4.9-11 11-11c2.8 0 5.3 1 7.2 2.7l6-6C33.5 6.2 28.9 4 24 4 12.9 4 4 12.9 4 24s8.9 20 20 20c11 0 20-9 20-20 0-1.3-.1-2.7-.4-3.5z"/>
<path fill="#e53935" d="M6.3 14.7l6.6 4.8C14.3 15.1 18.8 12 24 12c2.8 0 5.3 1 7.2 2.7l6-6C33.5 6.2 28.9 4 24 4 15.7 4 8.8 9 6.3 14.7z"/>
<path fill="#4caf50" d="M24 44c5.2 0 10-2 13.5-5.2l-6.2-5.3C29.3 35 26.7 36 24 36c-5.2 0-9.6-3.3-11.3-8L6.2 33.2C8.7 39 15.7 44 24 44z"/>
<path fill="#1565c0" d="M43.6 20.5H42V20H24v8h11.3c-1.3 3.4-4 6.2-7.3 7.5l6.2 5.3c-1.2.8 11.8-6.6 11.8-20.3 0-1.3-.1-2.7-.4-3.5z"/>
</svg>